<?xml version="1.0" standalone="no"?>
<!DOCTYPE svg PUBLIC "-//W3C//DTD SVG 20010904//EN"
 "http://www.w3.org/TR/2001/REC-SVG-20010904/DTD/svg10.dtd">
<svg version="1.0" xmlns="http://www.w3.org/2000/svg"
 width="100.000000pt" height="100.000000pt" viewBox="0 0 100.000000 100.000000"
 preserveAspectRatio="xMidYMid meet">
<metadata>
Created by potrace 1.14, written by Peter Selinger 2001-2017
</metadata>
<g transform="translate(0.000000,100.000000) scale(0.100000,-0.100000)"
fill="#000000" stroke="none">
<path d="M92 518 l3 -483 67 -3 67 -3 3 133 3 133 184 3 185 2 150 -150 c83
-82 152 -150 153 -150 2 0 3 218 3 485 l0 486 -62 -3 -63 -3 -3 -312 c-2 -251
-5 -313 -15 -313 -8 0 -160 148 -338 330 -178 181 -327 330 -332 330 -4 0 -6
-217 -5 -482z m255 40 c57 -57 103 -106 103 -111 0 -4 -48 -6 -107 -5 l-108 3
-3 108 c-1 59 1 107 5 107 4 0 54 -46 110 -102z"/>
</g>
</svg>
